<?xml version="1.0" encoding="UTF-8"?>
<svg id="Layer_1" data-name="Layer 1" xmlns="http://www.w3.org/2000/svg" xmlns:xlink="http://www.w3.org/1999/xlink" viewBox="0 0 681.28 557.85">
  <defs>
    <style>
      .cls-1 {
        fill: url(#linear-gradient);
      }

      .cls-1, .cls-2, .cls-3, .cls-4 {
        stroke-width: 0px;
      }

      .cls-2 {
        fill: #0d5976;
      }

      .cls-3 {
        fill: url(#linear-gradient-2);
      }

      .cls-4 {
        fill: #081b29;
      }
    </style>
    <linearGradient id="linear-gradient" x1="231.08" y1="117.88" x2="407.46" y2="16.04" gradientUnits="userSpaceOnUse">
      <stop offset="0" stop-color="#081b29"/>
      <stop offset="1" stop-color="#0d5976"/>
    </linearGradient>
    <linearGradient id="linear-gradient-2" x1="304.72" y1="166.78" x2="425.99" y2="166.78" gradientUnits="userSpaceOnUse">
      <stop offset="0" stop-color="#0d5976"/>
      <stop offset="1" stop-color="#081b29"/>
    </linearGradient>
  </defs>
  <g>
    <path class="cls-2" d="m502.7,207.24l-84.33-78.63c-1.68-1.94-3.22-2.96-5.97-2.96-19.35.01-38.69.03-58.03.04l-6.67.16c-.36.01-.7.21-.87.53l-41.99,79.98c-.35.66.13,1.46.88,1.46l41.4.04c21.38.05,42.76.17,64.13.04,1.67-.01,2.69-.03,4.15-.04-16.3,28.82-45.26,44.69-78.57,43.13-35.05-1.64-59.2-18.1-72.45-49.37-4.95-11.67-7.62-24.99-8.02-39.96,4.06-46.12,40.05-79.34,86.51-79.55,8.25.15,16.29,1.48,24.14,3.99.46.15.96-.05,1.19-.48l37.51-71.68c.28-.52.04-1.18-.51-1.4-12.84-5.13-26.12-8.73-39.85-10.8-11.07-1.54-22.23-2.06-33.48-1.55-95.97,5.97-167.03,90.06-156.13,185.32,8.59,75.11,66.65,135.14,141.48,146.09,84.65,12.39,164.12-41.05,185.77-123.38.09-.35-.02-.73-.29-.98ZM331.72.9s0,.05-.01.07c-.01.04-.04.06-.05.1.02-.06.05-.11.07-.17Z"/>
    <path class="cls-1" d="m330.94,1.99c-49.71,25.54-72.46,90.5-75.13,142.99-.28,5.48.29,11.01.55,16.68,4.06-46.12,40.05-79.34,86.51-79.55,8.25.15,16.29,1.48,24.14,3.99.46.15.96-.05,1.19-.48l37.51-71.68c.28-.52.04-1.18-.51-1.4-12.84-5.13-26.12-8.73-39.85-10.8-10.07-1.4-20.21-1.96-30.43-1.66,0,0-3,1.41-3.98,1.91Z"/>
    <path class="cls-3" d="m418,129.81c-.25-.57-.59-1.31-1.24-2.78-.7-.47-1.61-1.38-4.36-1.38-19.35.01-38.69.03-58.03.04l-6.67.16c-.36.01-.7.21-.87.53l-41.99,79.98c-.35.66.13,1.46.88,1.46l41.4.04c21.38.05,42.76.06,64.13.04,1.46,0,2.79-.04,4.15-.04,13.11-25.41,14.15-51.74,2.6-78.05Z"/>
  </g>
  <g>
    <path class="cls-4" d="m86.01,428.93c0,24.4-18.43,40.19-41.24,40.19-25.5,0-44.77-19.03-44.77-41.94s19.32-42.18,44.23-42.18c10.21.15,22.01,4.48,28.64,10.61l-11.8,16.19c-4.48-4.18-10.91-6.87-16.83-6.87-11.95,0-22.46,9.81-22.46,22.21,0,11.26,9.01,22.21,23.86,22.21,9.71,0,16.63-4.68,16.93-12.35h-18.38v-15.89h41.19c.4,2.69.65,5.28.65,7.82Z"/>
    <path class="cls-4" d="m139.35,467.23l-21.47-34.86v34.86h-21.32l-.1-80.29h30.48c17.33,0,29.73,11.7,29.73,26.1,0,10.01-6.03,18.38-13.9,21.96l21.52,32.22h-24.95Zm-21.57-45.02l8.72.05c4.53.05,8.67-3.14,8.67-8.07s-4.18-8.07-8.67-8.07h-8.72v16.09Z"/>
    <path class="cls-4" d="m168.49,427.18c0-24.11,19.12-42.38,44.08-42.38s44.08,18.28,44.08,42.38-19.12,42.08-44.13,42.08-44.03-18.18-44.03-42.08Zm66.59-.15c0-12.4-9.76-21.96-22.51-21.96s-22.51,9.56-22.51,21.96,9.76,21.86,22.51,21.86,22.51-9.51,22.51-21.86Z"/>
    <path class="cls-4" d="m336.48,386.84v81.18h-6.77l-41.29-39.99v39.25h-21.32v-81.13h6.87l41.14,39.84v-39.15h21.37Z"/>
    <path class="cls-4" d="m420.6,427.18c0,24.9-16.68,40.04-43.98,40.04h-26.2v-80.24l26.2-.05c27.29-.1,43.98,15.14,43.98,40.24Zm-21.37-.05c0-12.6-8.77-20.27-23.16-20.27h-4.88v40.29h5.08c14.24,0,22.96-7.57,22.96-20.02Z"/>
    <path class="cls-4" d="m497.5,386.94v80.29h-21.27v-30.23h-23.86v30.23h-21.32v-80.29h21.32v30.13h23.86v-30.13h21.27Z"/>
    <path class="cls-4" d="m510.75,438.04v-51.1h21.47v51.05c0,6.67,5.73,11.11,11.8,11.11s11.9-4.53,11.9-11.11v-51.05h21.47v51.1c0,18.43-14.94,31.43-33.32,31.43s-33.32-13-33.32-31.43Z"/>
    <path class="cls-4" d="m590.63,386.94h21.32v80.29h-21.32v-80.29Z"/>
    <path class="cls-4" d="m621.71,453.63l12.9-12.65c3.34,4.93,9.56,7.92,16.29,7.92,4.53,0,8.96-1.64,8.96-4.93,0-4.13-8.22-7.77-16.09-11.26-10.16-4.38-18.88-11.06-18.88-23.16,0-13.9,13.2-23.81,28.44-23.81,12.25,0,21.81,5.78,24.95,13.7l-12.3,11.85c-2.39-4.23-8.57-6.08-12.4-6.08-4.38,0-7.52,2.24-7.52,4.98,0,3.69,5.68,4.88,14.34,8.52,12.55,5.28,20.87,12.95,20.87,24.8,0,15.29-14.24,24.8-30.33,24.8-13.2,0-25.2-5.83-29.24-14.69Z"/>
  </g>
  <g>
    <path class="cls-4" d="m104.16,519.1h10.85l5.23,17.3,7.73-17.23h.75l7.73,17.18,5.2-17.25h10.85l-12.61,38.02h-2.77l-8.84-18.68-8.77,18.68h-2.74l-12.63-38.02Z"/>
    <path class="cls-4" d="m190.2,528.43v5.27h12v8.37h-12v5.41h14.58v9.4h-24.49v-37.78h24.49v9.33h-14.58Z"/>
    <path class="cls-4" d="m263.06,545.35c0,5.98-5.02,11.53-12.59,11.53h-16.12v-37.78h12.42c6.84,0,11.86,4.62,11.86,9.82,0,3.89-2.58,6.68-4.12,6.68,4.03,0,8.55,4.05,8.55,9.75Zm-16.59-17.53h-2.46v5.93h2.39c2.18,0,3.82-1.08,3.82-3.02,0-1.83-1.59-2.91-3.75-2.91Zm6.98,16.34c0-2.2-1.59-3.54-4.43-3.54l-5.02-.02v7.17h4.95c2.3,0,4.5-1.12,4.5-3.61Z"/>
    <path class="cls-4" d="m288.54,519.1h10.85l5.23,17.3,7.73-17.23h.75l7.73,17.18,5.2-17.25h10.85l-12.61,38.02h-2.77l-8.84-18.68-8.77,18.68h-2.74l-12.63-38.02Z"/>
    <path class="cls-4" d="m360.26,538.04c0-11.34,9-19.95,20.74-19.95s20.74,8.6,20.74,19.95-9,19.8-20.77,19.8-20.72-8.55-20.72-19.8Zm31.34-.07c0-5.84-4.59-10.34-10.59-10.34s-10.59,4.5-10.59,10.34,4.59,10.29,10.59,10.29,10.59-4.48,10.59-10.29Z"/>
    <path class="cls-4" d="m450.84,556.89l-10.1-16.41v16.41h-10.03l-.05-37.78h14.34c8.16,0,13.99,5.51,13.99,12.28,0,4.71-2.84,8.65-6.54,10.34l10.12,15.16h-11.74Zm-10.15-21.19l4.1.02c2.13.02,4.08-1.48,4.08-3.8s-1.97-3.8-4.08-3.8h-4.1v7.57Z"/>
    <path class="cls-4" d="m509.77,556.89l-9.56-14.37v14.37h-10.01v-37.78h10.01v14.09l8.77-14.09h11.53l-11.58,18.42,13.01,19.36h-12.16Z"/>
    <path class="cls-4" d="m547.57,550.49l6.07-5.95c1.57,2.32,4.5,3.73,7.66,3.73,2.13,0,4.22-.77,4.22-2.32,0-1.95-3.87-3.66-7.57-5.3-4.78-2.06-8.88-5.2-8.88-10.9,0-6.54,6.21-11.2,13.38-11.2,5.77,0,10.27,2.72,11.74,6.45l-5.79,5.58c-1.12-1.99-4.03-2.86-5.84-2.86-2.06,0-3.54,1.05-3.54,2.34,0,1.73,2.67,2.3,6.75,4.01,5.91,2.48,9.82,6.09,9.82,11.67,0,7.2-6.7,11.67-14.27,11.67-6.21,0-11.86-2.74-13.76-6.91Z"/>
  </g>
</svg>